<svg viewBox="1393.32 1297.7 4029.7 3988.72" style="max-height: 500px" xmlns="http://www.w3.org/2000/svg" id="outputsvg" class="img-fluid" width="4029.7" height="3988.72"><g style="transform: none;" fill="rgb(226,218,199)" id="l2FU9R4VEL4iX0XKwli073J"><g style="transform: none;"><path d="M2614 3658 c-21 -4 -86 -7 -144 -6 -199 2 -665 1 -747 -1 -51 -2 -86 -8 -93 -16 -6 -7 -13 -37 -16 -66 -3 -30 -8 -76 -11 -104 -12 -114 -14 -265 -3 -335 6 -41 12 -94 14 -116 2 -23 9 -51 15 -63 7 -12 9 -31 6 -41 -4 -11 1 -35 10 -53 9 -17 19 -54 22 -80 3 -26 10 -50 14 -53 5 -3 9 -12 9 -20 0 -8 9 -33 19 -57 10 -23 33 -76 51 -117 35 -82 34 -80 82 -158 18 -30 38 -61 43 -71 65 -110 282 -345 395 -429 95 -70 185 -132 192 -132 5 0 41 -19 81 -43 86 -51 135 -74 242 -111 139 -49 193 -62 375 -86 109 -14 180 -17 285 -14 77 3 157 5 179 4 21 0 43 4 50 9 6 5 68 19 136 31 68 11 129 25 134 30 6 6 17 10 27 10 30 0 257 97 334 143 214 128 386 275 524 447 80 100 121 156 121 164 0 3 13 24 28 48 27 40 44 74 93 183 47 106 59 136 59 153 0 10 4 22 8 27 12 14 32 87 32 117 0 13 4 28 9 33 13 15 29 115 42 260 12 133 7 290 -13 422 -9 63 -14 76 -33 83 -13 5 -178 9 -368 8 -190 0 -355 3 -367 7 -15 5 -25 1 -34 -10 -14 -19 -80 -18 -324 5 -75 7 -134 8 -150 3 -15 -5 -115 -8 -222 -6 -107 2 -214 1 -237 -2 l-43 -6 5 -152 c3 -84 5 -172 5 -196 0 -44 0 -45 147 -187 82 -79 156 -143 166 -144 10 0 34 7 53 15 53 22 230 19 289 -4 109 -44 158 -77 219 -144 94 -105 181 -277 200 -394 22 -129 26 -290 9 -305 -18 -14 -212 -13 -227 2 -5 5 -27 10 -47 10 -21 0 -40 4 -43 9 -3 5 -23 12 -43 16 -64 11 -179 66 -258 121 -97 69 -166 157 -201 259 -26 78 -32 210 -12 295 l18 75 -116 123 c-64 67 -122 122 -128 122 -29 0 -36 -56 -34 -288 1 -146 -2 -236 -9 -243 -5 -5 -17 -7 -26 -3 -18 7 -20 45 -17 392 1 115 -1 133 -16 139 -24 9 -36 -1 -157 -130 l-109 -117 16 -77 c19 -86 21 -197 5 -256 -36 -137 -211 -315 -364 -372 -27 -10 -59 -25 -70 -32 -11 -7 -31 -13 -45 -13 -14 0 -30 -4 -36 -10 -5 -5 -39 -12 -74 -15 -35 -3 -69 -10 -75 -15 -7 -6 -38 -8 -71 -5 -32 2 -68 4 -80 5 -30 0 -43 37 -34 96 4 27 13 101 20 164 7 63 16 120 20 125 4 6 14 30 20 55 20 71 70 166 117 223 49 57 123 126 137 127 5 0 17 7 26 15 9 9 49 26 87 38 97 32 219 32 285 -1 27 -13 52 -22 57 -20 5 1 82 75 172 163 l164 159 2 178 c3 212 5 207 -100 210 -190 5 -638 2 -673 -4z m1506 -287 c23 -44 3 -85 -37 -75 -11 3 -26 17 -33 30 -11 20 -11 27 5 44 23 25 51 26 65 1z m-1326 -7 c34 -33 4 -75 -40 -56 -30 14 -40 37 -24 57 16 19 44 19 64 -1z m-614 -224 c0 -9 -9 -25 -19 -34 -15 -14 -24 -15 -39 -7 -33 17 -37 49 -11 77 l23 24 23 -22 c13 -12 23 -29 23 -38z m2522 43 c25 -22 23 -45 -7 -73 -24 -23 -25 -23 -45 -5 -23 20 -24 32 -10 69 11 30 35 33 62 9z m-1203 -897 c37 -24 82 -81 117 -149 18 -34 21 -154 4 -185 -4 -9 -14 -32 -20 -50 -18 -48 -143 -172 -174 -172 -34 0 -149 126 -172 188 -10 26 -21 51 -26 57 -16 18 -8 133 13 192 25 69 54 101 111 125 60 24 102 22 147 -6z" id="pXT6YTHDK"/></g></g><g style="transform: none;" fill="rgb(143,142,114)" id="l3OBlKQbKcTYQkuF1717e7P"><g style="transform: none;"><path d="M3451 5061 c-8 -15 -10 -83 -5 -228 3 -115 4 -226 3 -248 -2 -22 -3 -60 -2 -85 1 -88 1 -159 -2 -470 -2 -173 -1 -331 1 -350 l5 -36 252 3 c139 2 285 3 325 3 39 0 72 4 72 9 0 5 -39 25 -87 46 -110 46 -228 125 -269 179 -96 128 -138 303 -103 429 13 50 61 71 184 83 108 11 124 10 195 -12 208 -64 333 -226 379 -491 12 -67 21 -149 21 -181 0 -39 4 -59 13 -61 6 -1 180 -3 385 -4 l372 -3 0 26 c0 120 -199 553 -316 686 -11 12 -37 43 -59 69 -78 94 -225 231 -303 283 -20 14 -39 29 -42 32 -5 8 -119 77 -208 127 -165 93 -467 183 -662 197 -41 3 -89 8 -107 12 -25 5 -33 2 -42 -15z" id="p4Xe4eYXi"/><path d="M3248 5064 c-5 -4 -28 -6 -53 -6 -25 1 -94 -9 -153 -23 -338 -78 -622 -220 -831 -415 -27 -25 -70 -65 -97 -90 -27 -25 -58 -57 -69 -71 -11 -15 -40 -49 -65 -78 -109 -126 -260 -416 -314 -606 -10 -33 -22 -70 -27 -83 -23 -57 -17 -61 84 -54 50 3 226 5 390 5 163 1 297 1 297 2 0 1 -5 16 -11 34 -8 24 -8 53 0 114 33 229 66 320 160 446 41 55 159 126 243 146 149 37 312 6 357 -66 23 -38 27 -187 6 -250 -32 -99 -95 -199 -156 -244 -50 -38 -138 -83 -232 -120 -60 -23 -105 -45 -100 -48 11 -7 169 -9 413 -7 147 2 261 -3 277 -13 7 -5 14 3 17 20 10 49 4 1393 -6 1399 -16 10 -122 17 -130 8z" id="p12bPWNWuV"/><path d="M2815 4322 c-114 -43 -176 -90 -239 -180 -32 -47 -85 -190 -91 -246 -2 -22 -9 -60 -16 -86 -7 -26 -9 -54 -6 -63 13 -33 97 -31 232 5 183 49 312 139 378 267 55 105 70 231 27 231 -19 0 -29 -9 -65 -56 -46 -60 -198 -201 -250 -233 -34 -20 -75 -13 -75 14 0 14 56 75 70 75 4 0 16 8 28 18 11 10 33 27 48 38 15 10 48 39 75 64 26 25 66 58 89 73 44 31 52 60 20 77 -11 6 -55 13 -97 16 -61 4 -89 1 -128 -14z" id="pASO6AlfZ"/><path d="M3830 4326 c-56 -9 -65 -14 -68 -33 -2 -13 1 -23 6 -23 9 0 53 -37 126 -105 24 -22 60 -53 80 -70 53 -42 136 -123 136 -132 0 -5 -4 -14 -9 -21 -12 -19 -77 15 -135 71 -24 23 -87 84 -140 135 -52 50 -102 92 -111 92 -12 0 -15 -13 -14 -67 1 -56 8 -82 38 -148 21 -44 55 -98 77 -121 45 -46 150 -108 209 -123 22 -5 60 -17 84 -26 25 -9 83 -21 129 -27 69 -8 86 -7 93 4 32 49 -26 296 -95 403 -70 108 -144 163 -259 189 -38 9 -71 16 -75 15 -4 -1 -36 -6 -72 -13z" id="pfHkgD3oG"/><path d="M2780 2931 c-87 -17 -226 -107 -290 -187 -66 -82 -115 -234 -136 -421 -13 -119 9 -140 129 -123 116 17 185 39 298 96 180 90 275 207 298 365 13 92 -3 179 -32 179 -14 0 -166 -142 -361 -337 -78 -79 -147 -143 -153 -143 -7 0 -15 9 -18 20 -7 23 3 34 283 315 100 101 182 191 182 199 0 38 -101 56 -200 37z" id="pPo9DC2ML"/><path d="M3905 2925 c-5 -2 -22 -6 -37 -9 -21 -5 -28 -12 -28 -31 0 -14 4 -25 10 -25 5 0 56 -45 112 -100 123 -118 114 -110 188 -185 32 -33 81 -81 109 -108 52 -48 62 -75 37 -96 -11 -9 -62 37 -255 229 -133 132 -248 240 -255 240 -27 0 -33 -27 -31 -130 2 -98 4 -110 37 -180 20 -41 51 -91 70 -110 124 -129 310 -210 523 -227 73 -6 89 9 87 83 -6 227 -66 392 -186 516 -91 94 -171 132 -285 134 -47 2 -90 1 -96 -1z" id="paAY3xNSh"/><path d="M3336 2187 c-33 -44 -46 -80 -46 -132 0 -67 39 -151 98 -213 6 -7 12 -18 12 -23 0 -5 10 -9 23 -9 29 0 58 33 102 113 36 66 43 128 25 197 -11 42 -64 100 -91 100 -16 0 -19 -8 -19 -44 0 -25 -4 -56 -10 -70 -17 -47 -30 -28 -30 44 0 63 -2 70 -19 70 -11 0 -31 -15 -45 -33z" id="pZX5FFzq"/></g></g><g style="transform: none;" fill="rgb(21,39,32)" id="l1iMI6xzaZL4QFQPYd1qO9A"><g style="transform: none;"><path d="M3265 5152 c-1 -2 -29 -5 -61 -8 -54 -4 -91 -9 -104 -14 -3 -1 -9 -3 -15 -5 -5 -1 -12 -3 -15 -4 -3 -1 -16 -4 -30 -7 -60 -10 -77 -14 -110 -23 -19 -5 -53 -15 -75 -21 -61 -16 -67 -18 -113 -35 -24 -8 -54 -23 -68 -31 -13 -9 -24 -14 -24 -11 0 7 -160 -75 -210 -107 -19 -13 -62 -40 -94 -61 -204 -132 -450 -398 -585 -635 -18 -32 -84 -163 -86 -170 0 -3 -9 -20 -18 -37 -10 -18 -15 -33 -11 -33 4 0 0 -7 -7 -17 -8 -9 -13 -18 -12 -19 1 -2 1 -9 -1 -16 -10 -32 -39 -115 -46 -133 -5 -11 -11 -36 -14 -55 -4 -19 -9 -51 -12 -70 -3 -19 -9 -51 -14 -70 -5 -19 -9 -63 -9 -97 0 -34 -4 -70 -9 -80 -6 -10 -8 -58 -6 -108 2 -49 4 -103 5 -120 0 -16 3 -37 6 -45 3 -8 7 -35 8 -60 1 -25 6 -56 10 -70 3 -14 9 -38 11 -55 13 -87 17 -106 25 -111 5 -3 9 -16 9 -29 0 -13 5 -36 12 -52 6 -15 12 -35 14 -43 3 -13 18 -53 47 -120 6 -14 11 -27 12 -30 3 -14 87 -179 105 -205 11 -16 23 -37 27 -45 4 -8 19 -31 33 -50 14 -19 53 -71 86 -114 159 -213 362 -386 584 -496 36 -18 77 -41 92 -52 16 -11 28 -16 28 -12 0 3 6 1 14 -5 8 -7 23 -13 33 -15 11 -2 37 -12 59 -22 21 -9 48 -19 58 -21 11 -2 25 -8 33 -14 7 -6 13 -8 13 -5 0 4 9 2 19 -4 11 -5 36 -12 56 -15 21 -2 43 -9 51 -16 7 -6 18 -8 24 -4 6 4 17 2 25 -5 7 -6 37 -13 65 -16 28 -2 60 -9 71 -14 10 -6 37 -8 58 -5 22 3 42 2 45 -3 7 -12 417 -1 466 13 24 6 41 9 102 19 52 8 93 18 103 26 12 9 67 24 78 22 4 -1 21 5 37 13 16 9 33 16 37 16 30 5 146 52 175 71 14 10 31 18 38 18 6 0 31 13 55 30 24 16 46 30 49 30 9 0 142 93 206 145 91 75 204 187 277 276 61 75 153 204 153 215 0 3 13 24 28 47 36 53 128 242 138 282 4 17 9 35 13 40 3 6 7 18 8 28 2 10 10 31 18 47 8 15 17 47 20 70 3 23 10 50 15 61 6 11 8 24 5 29 -3 6 -3 16 1 22 8 12 11 33 18 133 2 28 4 50 6 50 8 0 19 294 11 310 -3 5 -5 21 -5 35 -1 14 -4 30 -7 35 -3 6 -7 26 -8 45 -1 36 -3 46 -14 90 -4 14 -9 41 -12 60 -7 56 -15 92 -26 112 -5 10 -7 18 -3 18 3 0 2 6 -4 13 -6 6 -10 14 -10 17 -1 3 -6 18 -12 34 -6 16 -12 36 -14 45 -6 36 -75 180 -102 218 -13 17 -24 35 -24 39 0 11 -119 183 -179 259 -84 106 -207 230 -296 299 -89 70 -223 157 -275 181 -19 8 -42 19 -50 23 -58 32 -147 73 -158 72 -7 0 -28 7 -48 15 -19 8 -38 15 -42 16 -4 0 -15 5 -25 11 -10 5 -26 11 -35 13 -70 14 -118 27 -127 34 -11 10 -68 20 -135 25 -25 2 -56 7 -70 11 -24 7 -359 13 -365 7z m290 -99 c22 -2 63 -6 90 -8 28 -2 61 -6 75 -9 14 -4 39 -8 55 -10 17 -3 42 -9 58 -15 15 -6 27 -8 27 -6 0 3 16 -1 35 -9 19 -8 35 -13 35 -11 0 12 251 -88 327 -131 83 -47 198 -116 203 -124 3 -3 22 -18 42 -32 78 -52 225 -189 303 -283 22 -26 48 -57 59 -69 67 -76 174 -269 236 -426 23 -58 44 -112 46 -120 2 -8 11 -44 20 -80 10 -36 19 -72 22 -80 3 -8 6 -22 7 -30 1 -8 4 -22 8 -30 3 -8 6 -22 6 -30 1 -8 2 -42 4 -75 1 -33 5 -64 8 -70 10 -17 -8 -379 -20 -405 -2 -5 -9 -47 -12 -80 -1 -8 -5 -20 -10 -25 -4 -6 -10 -29 -13 -52 -3 -23 -10 -51 -16 -63 -6 -11 -8 -20 -4 -20 3 0 2 -6 -4 -13 -6 -7 -13 -25 -16 -41 -3 -15 -14 -46 -25 -67 -12 -21 -18 -39 -15 -39 3 0 -3 -17 -14 -37 -11 -21 -30 -60 -42 -88 -13 -27 -36 -69 -52 -93 -15 -24 -28 -45 -28 -48 0 -8 -41 -64 -121 -164 -138 -172 -310 -319 -524 -447 -44 -26 -200 -99 -200 -93 0 1 -26 -10 -58 -24 -32 -15 -66 -26 -77 -26 -10 0 -21 -4 -24 -9 -6 -8 -45 -18 -109 -26 -48 -6 -152 -27 -161 -33 -5 -3 -44 -6 -85 -6 -42 -1 -80 -4 -86 -7 -15 -8 -199 -4 -213 5 -7 4 -16 4 -22 1 -5 -3 -45 -1 -87 5 -43 7 -94 13 -113 15 -19 2 -48 8 -64 14 -16 7 -31 10 -33 7 -3 -2 -20 2 -39 10 -19 8 -34 12 -34 9 0 -4 -6 -3 -12 2 -7 4 -17 8 -23 10 -60 14 -236 86 -275 113 -14 10 -52 32 -85 49 -118 62 -273 181 -386 298 -76 78 -219 253 -219 268 0 3 -9 18 -19 33 -28 39 -75 116 -76 122 0 3 -15 39 -34 80 -18 41 -42 94 -52 117 -10 24 -19 49 -19 56 0 8 -3 17 -7 21 -5 4 -8 15 -9 24 -1 29 -16 86 -26 99 -5 6 -11 31 -13 55 -2 38 -11 83 -15 83 -1 0 -10 85 -13 135 -1 14 -5 30 -8 35 -8 15 2 318 11 328 1 1 4 22 6 47 3 40 9 76 14 90 1 3 2 9 1 14 -1 5 2 21 7 35 6 14 18 53 27 86 56 192 206 480 315 606 25 29 54 63 65 78 11 14 42 46 69 71 27 25 70 65 97 90 83 77 120 105 244 182 89 54 255 138 275 138 6 0 38 11 72 25 35 14 72 27 83 29 11 2 32 9 48 15 15 6 27 9 27 7 0 -2 20 2 45 10 25 7 45 11 45 8 0 -3 9 0 21 6 11 7 55 14 97 16 42 3 93 6 112 7 19 2 46 0 60 -3 l25 -6 0 -860 c1 -472 -2 -870 -5 -884 -3 -15 -69 -87 -167 -184 l-162 -158 -31 22 c-16 12 -30 19 -30 16 0 -3 -17 1 -37 8 -32 11 -125 15 -143 6 -3 -1 -8 -2 -13 -1 -17 3 -166 -51 -177 -64 -7 -8 -18 -15 -25 -15 -15 0 -117 -98 -157 -150 -31 -41 -88 -149 -88 -167 0 -6 -5 -24 -11 -40 -6 -15 -9 -28 -7 -29 2 0 -3 -8 -10 -17 -8 -9 -16 -38 -18 -64 -3 -26 -7 -61 -9 -78 -3 -16 -7 -52 -9 -80 -2 -27 -7 -69 -10 -92 -5 -29 -2 -52 8 -70 13 -26 18 -27 97 -30 46 -2 91 0 99 4 18 7 41 11 96 16 23 2 48 8 55 13 8 5 25 10 38 12 14 2 34 8 45 15 12 6 23 12 26 12 3 1 22 9 44 18 21 9 40 17 42 17 7 0 105 70 150 105 44 36 109 117 143 178 40 72 53 178 37 307 -3 19 -5 35 -6 35 -2 0 -11 38 -13 56 -2 20 221 261 237 256 8 -3 11 -80 12 -261 1 -238 3 -258 20 -271 22 -16 49 -5 56 23 3 10 4 119 3 243 -2 307 -8 301 136 149 111 -116 118 -128 102 -170 -16 -40 -24 -218 -11 -227 5 -2 8 -16 8 -31 0 -60 61 -183 124 -250 49 -53 210 -158 256 -168 3 0 19 -7 35 -14 17 -7 34 -12 39 -11 4 1 14 -3 20 -9 7 -5 16 -7 19 -3 4 3 13 0 21 -6 8 -7 30 -13 48 -13 18 0 38 -5 45 -10 7 -5 62 -11 123 -13 108 -3 111 -2 130 22 11 14 17 30 13 36 -4 6 -8 54 -10 107 -2 90 -7 147 -16 180 -2 8 -7 31 -11 50 -5 19 -22 62 -40 95 -17 33 -31 62 -31 65 -1 19 -69 117 -122 177 -61 68 -86 86 -218 145 -58 26 -246 27 -312 2 l-44 -17 -97 95 c-53 52 -120 116 -149 142 -52 48 -52 48 -48 102 2 29 1 55 -3 58 -4 2 -6 118 -5 258 2 139 3 267 3 283 0 17 0 118 0 225 0 107 1 224 0 260 0 36 0 94 1 130 2 66 1 152 -5 380 -3 139 3 165 37 154 12 -4 40 -9 62 -11z m-607 -2142 c12 -6 22 -14 22 -17 0 -3 -82 -88 -182 -188 -293 -294 -300 -302 -286 -331 21 -46 46 -31 194 118 213 213 348 337 356 329 12 -12 19 -50 18 -97 0 -120 -44 -222 -133 -308 -81 -79 -260 -169 -381 -193 -41 -8 -122 -17 -145 -16 -51 1 -55 32 -27 220 34 228 124 363 303 452 46 23 87 39 91 37 4 -3 16 -1 27 3 29 11 117 5 143 -9z m1137 -6 c146 -31 316 -238 351 -426 30 -162 33 -248 9 -265 -15 -11 -104 -12 -122 -1 -5 3 -29 8 -53 12 -25 3 -53 8 -62 11 -9 3 -26 7 -38 9 -71 14 -225 109 -298 185 -35 36 -98 158 -101 195 -7 90 -4 188 6 196 8 7 84 -62 254 -231 146 -145 248 -240 258 -238 8 2 21 14 28 28 15 30 -3 64 -61 112 -22 18 -66 60 -97 93 -70 73 -61 63 -187 185 -56 55 -107 100 -112 100 -12 0 -14 30 -2 31 17 1 56 10 58 12 5 5 139 -1 169 -8z" id="p1H7fZxIwP"/><path d="M2847 4414 c-2 -3 -14 -7 -26 -9 -11 -3 -31 -7 -43 -10 -34 -7 -118 -52 -169 -89 -56 -41 -163 -200 -173 -257 -1 -8 -5 -23 -9 -34 -7 -22 -12 -50 -28 -145 -6 -36 -12 -76 -15 -90 -9 -48 -6 -88 8 -117 13 -28 14 -28 103 -28 50 0 95 2 100 5 6 2 12 5 15 5 122 19 312 97 409 170 96 72 184 259 176 374 -10 146 -36 182 -150 211 -51 12 -189 22 -198 14z m183 -104 c29 -15 25 -25 -20 -57 -23 -15 -63 -48 -89 -73 -27 -25 -60 -54 -75 -64 -15 -11 -37 -28 -48 -38 -12 -10 -24 -18 -27 -18 -12 0 -58 -45 -70 -68 -15 -28 -3 -47 34 -56 25 -6 66 13 117 56 44 36 171 163 193 192 48 63 61 70 67 34 7 -44 -14 -123 -49 -189 -56 -109 -142 -179 -295 -242 -21 -9 -38 -14 -38 -11 0 2 -15 -2 -34 -10 -19 -8 -36 -13 -38 -11 -2 3 -24 -2 -49 -9 -41 -13 -95 -13 -127 -1 -13 5 -12 20 6 90 5 22 10 47 10 55 1 50 52 190 88 242 62 89 170 167 254 183 12 2 25 6 27 9 8 8 144 -4 163 -14z" id="pcAQBZybW"/><path d="M3877 4413 c-1 -1 -34 -4 -73 -7 -40 -3 -92 -14 -117 -25 -40 -17 -48 -26 -58 -63 -37 -128 7 -314 105 -444 75 -100 350 -238 468 -236 15 1 30 -3 32 -7 7 -11 176 -5 188 7 10 10 14 144 5 172 -5 18 -15 72 -21 115 -11 73 -21 105 -57 180 -48 100 -80 144 -144 196 -46 39 -129 84 -172 94 -10 3 -37 9 -60 15 -36 8 -89 10 -96 3z m93 -100 c85 -11 185 -81 249 -176 29 -42 86 -167 76 -167 -2 0 3 -28 12 -62 20 -85 25 -129 18 -156 -5 -21 -10 -23 -43 -18 -20 3 -57 8 -82 12 -24 3 -52 10 -62 15 -10 5 -18 7 -18 4 0 -3 -12 1 -27 8 -16 8 -43 17 -62 21 -51 9 -160 74 -205 120 -58 60 -108 172 -113 253 -5 78 -9 79 111 -36 48 -47 108 -105 132 -128 45 -43 111 -83 138 -83 14 0 26 20 26 46 0 15 -70 87 -136 139 -20 17 -56 48 -80 70 -52 49 -104 93 -124 105 -24 14 -1 28 60 35 30 4 57 9 59 11 3 3 12 2 20 -2 9 -3 32 -8 51 -11z" id="pUnImDAv"/><path d="M4074 3400 c-12 -5 -29 -19 -38 -31 -14 -21 -14 -25 3 -53 23 -35 65 -45 91 -21 18 16 19 32 5 76 -8 26 -35 38 -61 29z" id="p1DmoKFC2t"/><path d="M2722 3378 c-34 -34 18 -105 64 -87 41 15 51 48 23 78 -22 23 -68 28 -87 9z" id="p6QJemu6D"/><path d="M4652 3213 c-7 -3 -19 -21 -28 -41 -14 -34 -13 -38 4 -62 11 -14 28 -26 38 -28 23 -3 63 35 69 65 6 32 -51 77 -83 66z" id="puPdZ8tmI"/><path d="M2096 3179 c-31 -36 -31 -38 -8 -64 36 -43 47 -47 76 -24 33 26 34 68 3 97 -31 29 -40 28 -71 -9z" id="p7BllA5zr"/><path d="M3360 2308 c-30 -11 -66 -30 -78 -42 -20 -17 -48 -67 -57 -98 -2 -5 -4 -10 -5 -13 -1 -3 -3 -9 -4 -14 0 -5 -4 -12 -7 -15 -9 -9 0 -137 10 -161 6 -11 18 -41 29 -66 11 -25 47 -75 82 -112 53 -57 67 -67 97 -67 29 0 44 10 102 70 38 38 74 84 81 102 7 18 17 43 22 55 16 33 16 144 1 182 -38 98 -129 190 -193 197 -14 1 -50 -7 -80 -18z m27 -158 c-4 -71 11 -106 37 -80 19 20 35 81 29 114 -6 31 5 33 35 6 41 -39 54 -69 57 -132 2 -55 -2 -71 -31 -125 -18 -34 -43 -73 -55 -87 -22 -26 -49 -35 -49 -17 0 5 -6 16 -12 23 -80 84 -115 191 -87 265 13 35 57 93 70 93 6 0 8 -25 6 -60z" id="ptKrLCyhf"/></g></g><g style="transform: none;" class="contour" fill="rgb(0,0,0)" id="l2fRPK1Y1c1f6Ej5lqaxZP"><g style="transform: none;"><path d="M2053 6813 c164 -2 430 -2 590 0 161 1 27 2 -298 2 -324 0 -456 -1 -292 -2z" id="pWAGdwlWF"/><path d="M4043 6813 c488 -2 1286 -2 1775 0 488 1 88 2 -888 2 -976 0 -1376 -1 -887 -2z" id="p2rTBJGsg"/><path d="M6757 6813 l52 -4 4 -132 3 -132 2 138 2 137 -57 -2 -58 -2 52 -3z" id="pqXthPtg2"/><path d="M2993 6803 c32 -2 81 -2 110 0 29 2 3 3 -58 3 -60 0 -84 -1 -52 -3z" id="pWucCBSAP"/><path d="M6804 6370 c0 -85 2 -120 3 -77 2 42 2 112 0 155 -1 42 -3 7 -3 -78z" id="poeNzA1Dj"/><path d="M6815 5605 c0 -335 1 -471 2 -302 2 170 2 444 0 610 -1 166 -2 28 -2 -308z" id="plcl4U4Zr"/><path d="M3165 5145 c-230 -37 -388 -83 -560 -164 -507 -239 -903 -717 -1040 -1256 -24 -93 -35 -176 -51 -366 -12 -133 17 -364 69 -559 64 -242 150 -417 314 -638 185 -250 377 -413 648 -550 183 -93 332 -142 585 -194 87 -18 500 -17 590 1 155 31 202 42 286 70 304 100 519 231 749 458 285 281 506 714 540 1059 4 38 9 80 11 94 3 14 8 84 11 155 5 130 -3 213 -41 426 -16 88 -81 290 -117 363 -126 252 -373 564 -559 706 -277 211 -603 348 -948 399 -97 15 -387 12 -487 -4z m477 -6 c345 -51 671 -188 948 -399 186 -142 433 -454 559 -706 36 -73 101 -275 117 -363 48 -269 52 -368 24 -616 -58 -525 -387 -1046 -851 -1348 -141 -92 -261 -148 -443 -208 -85 -28 -132 -40 -286 -70 -89 -18 -483 -18 -570 -1 -253 52 -402 101 -585 194 -271 137 -463 300 -648 550 -164 221 -250 396 -314 638 -51 193 -81 429 -69 549 3 36 11 109 16 161 27 273 158 592 349 850 363 493 916 775 1523 779 87 1 190 -4 230 -10z" id="pj1URLfFD"/><path d="M3458 5063 c-3 -4 -5 -412 -6 -905 l0 -897 56 -52 c32 -28 101 -94 154 -147 l97 -95 48 19 c73 28 238 25 318 -6 88 -34 155 -80 211 -145 59 -69 80 -103 133 -213 55 -112 72 -183 80 -332 10 -167 8 -170 -99 -170 -190 0 -435 84 -575 197 -71 58 -134 147 -165 235 -26 77 -37 215 -20 278 25 97 31 85 -91 213 -61 64 -117 117 -124 117 -21 0 -25 -37 -25 -281 0 -193 -3 -239 -14 -248 -11 -9 -20 -10 -35 -1 -20 10 -21 18 -21 275 0 222 -2 265 -14 265 -8 0 -67 -55 -131 -122 -128 -136 -121 -119 -96 -238 59 -271 -128 -525 -471 -641 -87 -29 -209 -49 -300 -49 -97 0 -102 7 -93 123 16 214 54 360 123 476 50 86 145 181 224 225 122 68 277 82 375 35 24 -11 47 -19 52 -17 5 1 81 74 170 160 l161 157 -2 888 -3 888 -105 -2 c-164 -4 -305 -35 -515 -113 -407 -153 -762 -475 -963 -876 -99 -199 -154 -373 -177 -569 -23 -191 -17 -342 25 -580 29 -167 118 -395 218 -555 279 -449 712 -747 1222 -842 150 -28 520 -31 640 -4 41 9 105 22 142 30 274 59 579 224 796 431 335 319 521 702 563 1160 12 132 6 331 -11 429 -19 100 -64 253 -109 366 -94 234 -210 410 -396 596 -208 208 -432 349 -695 437 -159 53 -252 75 -375 88 -49 5 -109 12 -131 15 -23 3 -44 2 -46 -3z m177 -22 c241 -25 502 -116 725 -251 191 -117 383 -291 512 -464 248 -333 373 -763 339 -1167 -39 -466 -224 -851 -563 -1174 -217 -207 -522 -372 -796 -431 -37 -8 -101 -21 -142 -30 -120 -26 -470 -24 -620 4 -510 95 -943 393 -1222 842 -133 213 -204 423 -242 715 -43 328 9 629 163 950 149 311 375 564 662 743 126 78 183 106 304 152 199 74 334 105 508 116 l107 7 -1 -884 -1 -884 -162 -157 -163 -157 -40 20 c-57 28 -161 34 -251 15 -97 -20 -190 -74 -266 -151 -140 -143 -202 -317 -221 -615 -9 -128 -5 -133 106 -131 373 5 704 209 773 476 17 64 20 167 7 230 -5 22 -12 54 -15 70 -6 28 2 39 113 155 l120 125 0 -268 1 -267 26 -12 c18 -9 30 -9 42 -1 15 9 18 42 23 269 3 142 6 261 7 264 2 3 55 -49 118 -115 l115 -120 -13 -40 c-7 -23 -13 -86 -13 -150 0 -131 23 -210 89 -308 116 -174 415 -307 686 -307 121 0 121 0 110 180 -10 160 -26 229 -81 342 -99 205 -188 298 -344 358 -50 20 -79 24 -175 24 -84 1 -126 -3 -155 -15 l-40 -17 -151 147 -152 146 1 893 1 894 40 -6 c23 -3 82 -10 131 -15z" id="pRSW2nhfi"/><path d="M2784 4401 c-170 -49 -307 -193 -358 -379 -50 -179 -62 -331 -32 -381 11 -16 173 -14 252 5 86 19 231 77 303 119 117 69 178 145 227 281 35 96 32 207 -8 290 -34 72 -239 106 -384 65z m288 -10 c85 -26 118 -87 118 -216 0 -111 -74 -274 -155 -340 -90 -74 -261 -151 -397 -180 -90 -19 -222 -20 -235 -2 -19 24 -21 74 -7 167 30 207 52 271 125 381 63 94 150 157 263 191 68 20 222 19 288 -1z" id="pRo6mcMpk"/><path d="M2812 4311 c-112 -42 -189 -106 -248 -207 -42 -71 -105 -321 -91 -358 15 -39 227 1 373 70 143 68 258 222 271 361 7 82 -9 91 -56 32 -54 -68 -205 -215 -251 -244 -52 -33 -103 -32 -108 3 -4 26 18 48 134 139 43 35 102 82 129 105 28 24 61 50 75 60 24 15 24 17 8 34 -27 28 -167 30 -236 5z m207 0 c35 -10 36 -24 2 -44 -17 -10 -55 -41 -86 -69 -31 -28 -95 -81 -143 -118 -50 -38 -91 -77 -96 -92 -20 -58 44 -77 112 -34 53 33 191 165 242 231 23 30 47 55 53 55 6 0 8 -23 4 -61 -12 -139 -122 -287 -262 -353 -99 -47 -248 -86 -327 -86 -45 0 -46 6 -22 120 54 263 135 375 316 440 53 19 158 25 207 11z" id="pupqvp0gV"/><path d="M3786 4409 c-33 -5 -79 -16 -102 -25 -37 -14 -45 -23 -58 -62 -44 -127 8 -335 114 -464 70 -84 290 -198 435 -224 110 -19 229 -19 249 2 29 28 15 193 -29 368 -37 143 -160 303 -276 360 -111 53 -196 65 -333 45z m223 -14 c139 -37 254 -130 323 -261 74 -141 125 -445 82 -488 -20 -21 -120 -21 -235 -1 -157 28 -377 142 -441 229 -76 104 -119 228 -117 342 1 94 17 135 61 156 72 35 240 47 327 23z" id="p10wgh2bnI"/><path d="M3823 4321 c-24 -4 -46 -11 -50 -15 -5 -5 1 -6 12 -3 85 24 210 11 287 -29 52 -27 118 -95 159 -164 52 -88 98 -271 90 -362 -2 -26 -53 -18 -283 46 -68 19 -182 90 -221 139 -52 64 -87 142 -102 226 l-14 76 5 -65 c6 -77 53 -184 109 -248 43 -49 157 -120 223 -138 143 -40 192 -52 235 -57 43 -6 48 -5 56 16 20 53 -33 273 -88 367 -41 69 -117 147 -169 174 -37 19 -147 46 -182 45 -14 -1 -44 -5 -67 -8z" id="p3vzBxqRx"/><path d="M3810 4254 c25 -22 70 -61 101 -89 30 -27 88 -79 128 -114 64 -56 72 -67 69 -95 -6 -66 -68 -29 -263 155 -71 68 -112 103 -90 80 77 -83 262 -248 298 -264 46 -22 67 -14 67 28 0 26 -10 41 -53 81 -96 89 -269 239 -286 248 -9 5 4 -9 29 -30z" id="pwlLKDhEL"/><path d="M2733 3654 c3 -3 145 -7 316 -8 171 -2 309 -1 306 2 -3 3 -145 7 -316 8 -171 2 -309 0 -306 -2z" id="pJA7pKJwo"/><path d="M3515 3649 c-60 -8 399 -9 475 -1 39 4 -34 7 -185 7 -137 0 -268 -2 -290 -6z" id="p1F7BSeCmz"/><path d="M1710 3641 c-30 -3 98 -5 285 -3 187 1 351 4 365 6 47 6 -595 3 -650 -3z" id="praos8X2B"/><path d="M4628 3643 c100 -2 264 -2 365 0 100 1 18 2 -183 2 -201 0 -283 -1 -182 -2z" id="prdjEfBHh"/><path d="M4041 3384 c-25 -32 -25 -37 -6 -73 29 -56 107 -44 113 17 7 75 -64 111 -107 56z m83 -6 c32 -45 14 -88 -36 -88 -20 0 -31 8 -42 29 -14 27 -14 31 5 55 25 32 53 33 73 4z" id="p2zBMUoca"/><path d="M2728 3388 c-30 -24 -31 -56 -4 -83 30 -29 66 -32 89 -7 49 54 -28 134 -85 90z m72 -18 c25 -25 25 -42 -1 -66 -19 -17 -23 -17 -47 -3 -33 18 -41 58 -16 76 25 18 41 16 64 -7z" id="pflYygIG9"/><path d="M4637 3207 c-29 -20 -32 -77 -7 -110 27 -35 44 -34 81 2 35 35 37 70 6 99 -26 25 -55 28 -80 9z m72 -21 c27 -29 22 -56 -17 -87 l-27 -21 -23 28 c-26 30 -24 69 5 92 24 17 37 15 62 -12z" id="p19fo9RZ42"/><path d="M2091 3184 c-27 -35 -26 -59 4 -89 31 -32 58 -32 84 1 27 35 27 65 -2 92 -31 29 -61 28 -86 -4z m76 -6 c28 -26 29 -38 2 -72 -25 -32 -33 -32 -64 -1 -30 29 -31 35 -4 69 25 32 36 32 66 4z" id="pcc4cC8L0"/><path d="M3334 2306 c-60 -28 -86 -58 -115 -134 -47 -126 -5 -276 112 -398 85 -88 106 -88 195 2 88 88 124 165 124 264 0 55 -5 81 -24 118 -81 158 -171 204 -292 148z m157 -6 c42 -22 85 -75 125 -152 56 -109 19 -243 -100 -362 -44 -44 -73 -66 -89 -66 -36 0 -141 114 -178 195 -42 89 -49 170 -20 247 29 76 55 106 115 134 63 29 95 30 147 4z" id="pTDgVGoVt"/><path d="M3368 2209 c-36 -20 -98 -169 -71 -169 4 0 9 17 11 37 2 39 43 117 65 126 10 4 12 -8 9 -53 -2 -32 1 -67 7 -79 29 -53 85 48 62 113 l-10 31 5 -32 c8 -47 -13 -115 -34 -111 -14 3 -17 16 -17 70 -1 37 -3 69 -6 72 -2 2 -12 0 -21 -5z" id="pdhtyELzQ"/><path d="M3477 2196 c92 -69 84 -221 -19 -343 l-32 -38 31 29 c17 15 45 54 62 86 26 48 31 69 31 123 0 58 -3 70 -32 108 -18 23 -40 44 -48 47 -8 2 -5 -3 7 -12z" id="pyfJYuwER"/><path d="M3301 2024 c-3 -39 54 -139 112 -199 20 -20 -7 20 -40 61 -18 23 -42 66 -52 95 -11 30 -20 49 -20 43z" id="pR87tw7Mk"/><path d="M2775 2921 c-103 -27 -222 -110 -289 -201 -51 -70 -99 -210 -115 -339 -23 -184 -19 -190 107 -172 120 17 182 36 292 90 169 83 268 200 300 354 12 60 6 142 -12 167 -8 13 -9 12 -5 -1 41 -130 -11 -298 -126 -405 -67 -63 -207 -139 -307 -167 -76 -21 -214 -41 -234 -34 -47 18 19 370 91 482 75 117 229 212 358 222 44 4 86 1 106 -6 27 -9 31 -9 21 1 -15 15 -142 21 -187 9z" id="pHjxiLWSY"/><path d="M3885 2913 c-11 -3 -24 -9 -29 -14 -5 -4 8 -3 30 2 21 6 76 9 120 7 111 -6 189 -44 273 -133 65 -70 132 -193 151 -279 15 -68 31 -247 24 -268 -9 -29 -99 -22 -279 21 -77 19 -204 92 -271 156 -94 91 -126 165 -132 308 -4 96 -3 109 11 105 9 -1 124 -110 255 -240 132 -131 244 -238 250 -238 15 0 42 41 42 64 0 18 -421 443 -462 467 -10 5 28 -35 84 -88 279 -271 368 -362 368 -378 0 -22 -18 -55 -31 -55 -6 0 -118 107 -250 238 -132 130 -248 237 -257 237 -15 0 -17 -13 -16 -110 0 -102 3 -115 32 -179 44 -94 140 -187 253 -245 86 -43 108 -50 239 -76 107 -21 157 -20 170 5 11 21 -1 188 -20 276 -34 151 -163 325 -288 386 -57 28 -76 32 -156 34 -50 2 -100 0 -111 -3z" id="pzyWXRd2w"/><path d="M2726 2649 c-130 -132 -236 -248 -236 -258 0 -18 29 -51 46 -51 5 0 122 111 259 247 240 237 242 239 46 52 -112 -107 -220 -213 -240 -236 -19 -24 -43 -46 -54 -49 -22 -7 -47 12 -47 36 0 10 106 126 236 259 130 133 234 241 231 241 -2 0 -111 -108 -241 -241z" id="p15X5gpVBs"/><path d="M6814 4890 c0 -58 1 -81 3 -52 2 28 2 76 0 105 -2 28 -3 5 -3 -53z" id="pfhyMT1xU"/><path d="M6813 4700 c0 -47 2 -66 4 -42 2 23 2 61 0 85 -2 23 -4 4 -4 -43z" id="p6223336q"/></g></g></svg>